<?xml version="1.0" encoding="utf-8"?>
<!-- Generator: Adobe Illustrator 16.0.0, SVG Export Plug-In . SVG Version: 6.00 Build 0)  -->
<!DOCTYPE svg PUBLIC "-//W3C//DTD SVG 1.1//EN" "http://www.w3.org/Graphics/SVG/1.1/DTD/svg11.dtd">
<svg version="1.1" id="Layer_1" xmlns="http://www.w3.org/2000/svg" xmlns:xlink="http://www.w3.org/1999/xlink" x="0px" y="0px"
	 width="1289.34px" height="192.682px" viewBox="0 0 1289.34 192.682" enable-background="new 0 0 1289.34 192.682"
	 xml:space="preserve">
<linearGradient id="SVGID_1_" gradientUnits="userSpaceOnUse" x1="-727.0195" y1="297.3096" x2="-448.5337" y2="297.3096" gradientTransform="matrix(1 0 0 -1 727.0195 393.6504)">
	<stop  offset="0" style="stop-color:#005998"/>
	<stop  offset="1" style="stop-color:#00C1ED"/>
</linearGradient>
<path fill="url(#SVGID_1_)" d="M247.914,68.544l-30.891,9.544l3.056,9.748c0.811,2.584,1.359,5.24,1.661,7.922l31.569-9.754
	c4.801-1.484,7.513-6.625,6.031-11.428v-0.001c-1.208-3.911-4.844-6.437-8.745-6.437C249.705,68.138,248.804,68.27,247.914,68.544
	 M266.652,33.197l-58.078,17.947l5.468,17.436l58.007-17.924c4.799-1.482,7.513-6.627,6.032-11.424h-0.003
	c-1.207-3.912-4.846-6.44-8.749-6.44C268.441,32.792,267.54,32.924,266.652,33.197 M231.24,14.587l-31.113,9.61l5.468,17.438
	l31.04-9.592c4.801-1.483,7.516-6.625,6.035-11.426l-0.003-0.001c-1.208-3.91-4.841-6.438-8.744-6.438
	C233.033,14.179,232.133,14.311,231.24,14.587 M26.899,130.218L16.84,98.133c-3.281-10.463,4.825-19.408,13.802-23.524
	l125.623-57.573c8.677-3.976,18.448,4.786,20.91,12.64l20.44,65.204c2.459,7.842-0.583,20.636-9.945,22.316L51.661,141.649
	c-1.762,0.315-3.594,0.483-5.434,0.483C37.964,142.133,29.57,138.74,26.899,130.218 M149.565,2.414L23.942,59.989
	C6.804,67.845-4.141,84.974,1.49,102.947l1.581,5.037l6.901,22.005l1.58,5.04c5.632,17.969,24.402,25.787,42.954,22.45l12.859-2.313
	v37.516c11.361-1,19.181-6.897,18.6-24.435c1.946-10.267,7.829-16.588,17.123-19.502l87.426-15.722
	c18.555-3.337,28.089-24.97,22.449-42.955L206.19,68.47l-6.901-22.007l-6.769-21.598C188.068,10.666,174.558,0,160.634,0
	C156.92,0.002,153.173,0.759,149.565,2.414"/>
<g>
	<path fill="#0E1F32" d="M328.665,155.035c-7.708-2.568-13.765-5.898-18.17-9.99l5.821-12.27c4.193,3.775,9.569,6.844,16.125,9.203
		c6.554,2.359,13.293,3.539,20.216,3.539c9.125,0,15.941-1.547,20.452-4.641c4.508-3.094,6.765-7.211,6.765-12.35
		c0-3.775-1.234-6.844-3.697-9.203c-2.466-2.359-5.507-4.17-9.125-5.43c-3.618-1.262-8.73-2.678-15.338-4.246
		c-8.286-1.992-14.973-3.984-20.059-5.98c-5.088-1.992-9.439-5.059-13.057-9.203c-3.619-4.143-5.428-9.727-5.428-16.756
		c0-5.873,1.547-11.17,4.641-15.889c3.093-4.721,7.788-8.496,14.081-11.328c6.292-2.832,14.104-4.246,23.44-4.246
		c6.502,0,12.9,0.84,19.193,2.52c6.293,1.678,11.693,4.09,16.204,7.234l-5.191,12.584c-4.616-2.934-9.545-5.164-14.789-6.686
		c-5.246-1.521-10.383-2.281-15.417-2.281c-8.916,0-15.602,1.627-20.058,4.877c-4.459,3.252-6.687,7.447-6.687,12.586
		c0,3.775,1.259,6.844,3.776,9.203s5.637,4.195,9.36,5.506c3.722,1.314,8.784,2.703,15.182,4.17
		c8.284,1.992,14.945,3.986,19.979,5.98c5.034,1.994,9.36,5.033,12.979,9.123c3.618,4.092,5.428,9.598,5.428,16.52
		c0,5.77-1.573,11.039-4.72,15.813c-3.146,4.771-7.92,8.549-14.316,11.328c-6.399,2.777-14.265,4.168-23.599,4.168
		C344.37,158.889,336.374,157.605,328.665,155.035z"/>
	<path fill="#0E1F32" d="M488.423,130.1h-58.525l-12.112,27.531H401.58l49.872-110.125h15.574l50.029,110.125h-16.519L488.423,130.1
		z M482.915,117.514l-23.754-53.961l-23.757,53.961H482.915z"/>
	<path fill="#0E1F32" d="M533.415,47.506h15.733v96.438h59.625v13.688h-75.357L533.415,47.506L533.415,47.506z"/>
	<path fill="#0E1F32" d="M706.782,143.945v13.686h-79.919V47.506h77.717v13.688h-61.981v33.822h55.219v13.373h-55.219v35.557
		H706.782L706.782,143.945z"/>
	<path fill="#0E1F32" d="M740.37,155.035c-7.709-2.568-13.767-5.898-18.171-9.99l5.821-12.27c4.194,3.775,9.569,6.844,16.126,9.203
		c6.552,2.359,13.294,3.539,20.216,3.539c9.124,0,15.94-1.547,20.451-4.641c4.509-3.094,6.764-7.211,6.764-12.35
		c0-3.775-1.229-6.844-3.693-9.203c-2.469-2.359-5.509-4.17-9.125-5.43c-3.617-1.262-8.731-2.678-15.341-4.246
		c-8.284-1.992-14.973-3.984-20.059-5.98c-5.088-1.992-9.439-5.059-13.059-9.203c-3.617-4.143-5.43-9.727-5.43-16.756
		c0-5.873,1.549-11.17,4.645-15.889c3.092-4.721,7.787-8.496,14.079-11.328c6.294-2.832,14.104-4.246,23.438-4.246
		c6.502,0,12.9,0.84,19.193,2.52c6.293,1.678,11.692,4.09,16.204,7.234l-5.192,12.584c-4.616-2.934-9.544-5.164-14.788-6.686
		c-5.245-1.521-10.384-2.281-15.417-2.281c-8.916,0-15.603,1.627-20.059,4.877c-4.459,3.252-6.688,7.447-6.688,12.586
		c0,3.775,1.26,6.844,3.775,9.203s5.637,4.195,9.36,5.506c3.722,1.314,8.779,2.703,15.182,4.17
		c8.284,1.992,14.946,3.986,19.979,5.98s9.358,5.033,12.979,9.123c3.618,4.092,5.428,9.598,5.428,16.52
		c0,5.77-1.574,11.039-4.72,15.813c-3.147,4.771-7.92,8.549-14.316,11.328c-6.396,2.777-14.266,4.168-23.598,4.168
		C756.075,158.889,748.079,157.605,740.37,155.035z"/>
	<path fill="#0E1F32" d="M855.604,71.576v24.229h48.612v24.07h-48.612v37.756h-31.15V47.506h86.37v24.07H855.604L855.604,71.576z"/>
	<path fill="#0E1F32" d="M994.992,136.236h-46.564l-8.652,21.395h-31.779l48.612-110.125h30.678l48.771,110.125h-32.407
		L994.992,136.236z M985.866,113.266l-14.158-35.24l-14.156,35.24H985.866z"/>
	<path fill="#0E1F32" d="M1093.001,128.369h-16.991v29.262h-31.149V47.506h50.343c9.964,0,18.615,1.652,25.958,4.955
		c7.342,3.305,13.003,8.023,16.99,14.16c3.985,6.135,5.979,13.346,5.979,21.631c0,7.971-1.86,14.922-5.584,20.846
		c-3.726,5.928-9.047,10.566-15.97,13.922l23.757,34.611h-33.354L1093.001,128.369z M1107.79,76.295
		c-3.252-2.832-8.077-4.246-14.474-4.246h-17.306v32.25h17.306c6.396,0,11.222-1.389,14.474-4.168
		c3.25-2.779,4.878-6.74,4.878-11.879C1112.667,83.115,1111.04,79.127,1107.79,76.295z"/>
	<path fill="#0E1F32" d="M1260.704,157.631l-0.313-58.367l-28.317,47.514h-13.844l-28.162-45.939v56.793h-28.789V47.506h25.646
		l38.698,63.557l37.761-63.557h25.644l0.313,110.125H1260.704z"/>
</g>
</svg>
